<mxfile host="app.diagrams.net" modified="2024-02-17T23:22:46.046Z" agent="Mozilla/5.0 (Windows NT 10.0; Win64; x64) AppleWebKit/537.36 (KHTML, like Gecko) Chrome/121.0.0.0 Safari/537.36" version="23.1.5" etag="y0eP_gqlRFvnPJ2bFiy2" type="github">
  <diagram name="第 1 页" id="f8c1nCGulpwPzQUFRsGJ">
    <mxGraphModel>
      <root>
        <mxCell id="0" />
        <mxCell id="1" parent="0" />
      </root>
    </mxGraphModel>
  </diagram>
</mxfile>
